<?xml version="1.0" encoding="UTF-8"?>
<svg width="265px" height="41px" viewBox="0 0 265 41" version="1.1" xmlns="http://www.w3.org/2000/svg" xmlns:xlink="http://www.w3.org/1999/xlink">
    <!-- Generator: Sketch 55.2 (78181) - https://sketchapp.com -->
    <title>编组</title>
    <desc>Created with Sketch.</desc>
    <g id="登录页" stroke="none" stroke-width="1" fill="none" fill-rule="evenodd">
        <g id="个人资料" transform="translate(-53.000000, -77.000000)" fill="#FFFFFF">
            <g id="编组" transform="translate(53.000000, 77.000000)">
                <g id="logo">
                    <path d="M47,24.1659807 C47,21.4053689 47.4071588,19.088519 48.2283195,17.2171509 C48.8390578,15.839425 49.6687722,14.6010197 50.7191736,13.508815 C51.7781287,12.4114503 52.9311752,11.5944468 54.1851559,11.0664046 C55.8599816,10.3526015 57.7794447,10 59.965785,10 C63.9141992,10 67.0756679,11.2315253 69.4433478,13.7083359 C71.8110278,16.1834265 73,19.6286013 73,24.0352602 C73,28.4092389 71.823003,31.8303336 69.4741413,34.2951041 C67.1201474,36.7684747 63.9740755,38 60.0393473,38 C56.0532965,38 52.8832741,36.7719147 50.5327017,34.3157442 C48.1787077,31.8612937 47,28.4745992 47,24.1659807 M52.5770496,23.9819399 C52.5770496,27.0469931 53.2784577,29.369003 54.6829846,30.9496898 C56.0875115,32.5286566 57.8718252,33.3215799 60.0290828,33.3215799 C62.1914726,33.3215799 63.9621003,32.5372566 65.3460982,30.9634498 C66.7335176,29.3982431 67.4280826,27.0469931 67.4280826,23.9062596 C67.4280826,20.8068063 66.7523358,18.4899564 65.402553,16.9677499 C64.0510593,15.4403833 62.2650349,14.67498 60.0290828,14.67498 C57.7965522,14.67498 55.9934202,15.4489834 54.6265298,16.99355 C53.2579287,18.5381166 52.5770496,20.8670066 52.5770496,23.9819399" id="Fill-2"></path>
                    <path d="M76,38 L76,11 L87.8146307,11 C90.790483,11 92.9549006,11.2405804 94.2990057,11.7303335 C95.6448864,12.2149313 96.7244318,13.0758656 97.5340909,14.3131365 C98.34375,15.5538442 98.746804,16.969832 98.746804,18.5679735 C98.746804,20.5922862 98.1395597,22.2660387 96.9161932,23.5840759 C95.6946023,24.9055499 93.8675426,25.7407077 91.4332386,26.0826757 C92.6459517,26.7648931 93.6402699,27.5244399 94.4268466,28.3458503 C95.2134233,29.1706976 96.2716619,30.6313646 97.6086648,32.7330066 L101,38 L94.2883523,38 L90.2649148,32.1023422 C88.8213778,30.0127291 87.8323864,28.6912551 87.2979403,28.1499491 C86.7634943,27.6034878 86.1988636,27.2305881 85.6058239,27.0260947 C85.0074574,26.8267566 84.0646307,26.7219323 82.772017,26.7219323 L81.6267756,26.7219323 L81.6267756,38 L76,38 Z M81.6267756,22.4258529 L85.7798295,22.4258529 C88.4715909,22.4258529 90.1512784,22.3124364 90.8224432,22.0941955 C91.4918324,21.8725178 92.015625,21.4893075 92.3920455,20.94972 C92.7755682,20.408414 92.9637784,19.7347887 92.9637784,18.920252 C92.9637784,18.0077648 92.7116477,17.2739944 92.2162642,16.7155041 C91.7173295,16.1587322 91.012429,15.8047352 90.0997869,15.6535132 C89.647017,15.5950866 88.2798295,15.5624364 86.0053267,15.5624364 L81.6267756,15.5624364 L81.6267756,22.4258529 Z" id="Fill-4"></path>
                    <polygon id="Fill-6" points="102 38 102 11 107.617341 11 107.617341 22.9551298 118.929943 11 126.454558 11 115.990225 21.5133656 127 38 119.75696 38 112.126089 25.3248473 107.617341 29.8340122 107.617341 38"></polygon>
                    <path d="M130,11 L135.60299,11 L135.60299,25.9014754 C135.60299,28.268067 135.67548,29.8032008 135.808085,30.5051263 C136.046773,31.6271568 136.610785,32.532133 137.501889,33.2113028 C138.396528,33.8992248 139.611187,34.2370593 141.154705,34.2370593 C142.726513,34.2370593 143.912883,33.9132283 144.706743,33.2743186 C145.507675,32.6284071 145.985052,31.8337084 146.147714,30.8954739 C146.306839,29.9554889 146.391706,28.3993498 146.391706,26.220055 L146.391706,11 L152,11 L152,25.4586147 C152,28.7669417 151.844411,31.1002751 151.549144,32.463866 C151.245037,33.8292073 150.691634,34.9827457 149.880093,35.9209802 C149.070321,36.8609652 147.986498,37.6084021 146.632163,38.1650413 C145.277827,38.7181795 143.511533,39 141.326208,39 C138.693563,39 136.695652,38.6936734 135.332476,38.0897724 C133.974604,37.4806202 132.894318,36.6929232 132.103994,35.7231808 C131.315438,34.7516879 130.79386,33.7364341 130.546331,32.6739185 C130.180342,31.0932733 130,28.7669417 130,25.6826707 L130,11 Z" id="Fill-8"></path>
                    <path d="M0.0143700973,14.1777087 C-0.120805947,12.4660368 0.712779661,11 1.8791063,11 L6.11635539,11 C7.28614808,11 8.11800066,12.4660368 7.98629067,14.1777087 L6.28099288,36.0547716 C6.24113328,36.5849079 5.71429331,37 5.10253505,37 L2.89465966,37 C2.28116838,37 1.75952749,36.5849079 1.71100276,36.0547716 L0.0143700973,14.1777087 Z" id="Fill-10"></path>
                    <path d="M0,4.50368852 C0,2.01393443 1.78712663,0 4.00168279,0 C6.2061422,0 8,2.01393443 8,4.50368852 C8,6.98606557 6.2061422,9 4.00168279,9 C1.78712663,9 0,6.98606557 0,4.50368852" id="Fill-13"></path>
                    <polygon id="Fill-1" points="42.2599581 11 37.9612403 29.162434 33.0239384 11 26.2322169 11 21.0766418 28.8579339 16.878943 11 11 11 17.6365852 37 23.9105846 37 29.5189411 17.5632996 35.0821998 37 41.197455 37 48 11"></polygon>
                </g>
                <path d="M193.03681,12 C196.257669,12 198.941718,12.8301887 201.01227,14.490566 C203.006135,16.0754717 204.194785,18.2641509 204.616564,20.9811321 L200.245399,20.9811321 C199.785276,19.2075472 198.941718,17.9245283 197.67638,17.0943396 C196.449387,16.2641509 194.877301,15.8867925 192.960123,15.8867925 C190.084356,15.8867925 187.937117,16.8301887 186.480061,18.7924528 C185.138037,20.5283019 184.486196,22.9433962 184.486196,26.0377358 C184.486196,29.2075472 185.138037,31.6603774 186.441718,33.3584906 C187.860429,35.1698113 190.084356,36.1132075 193.075153,36.1132075 C195.030675,36.1132075 196.641104,35.6226415 197.868098,34.7169811 C199.171779,33.6981132 200.092025,32.1509434 200.628834,30.1132075 L205,30.1132075 C204.386503,33.2830189 202.967791,35.7358491 200.705521,37.509434 C198.596626,39.1698113 196.065951,40 193.113497,40 C188.550613,40 185.138037,38.5660377 182.91411,35.7735849 C180.958589,33.3584906 180,30.1132075 180,26.0377358 C180,22.0377358 180.996933,18.754717 183.029141,16.2641509 C185.329755,13.3962264 188.665644,12 193.03681,12 Z M209,12 L221.251256,12 C224.063652,12 226.298157,12.605042 227.916248,13.8529412 C229.61139,15.2142857 230.497487,17.1806723 230.497487,19.7521008 C230.497487,21.1512605 230.112228,22.3991597 229.341709,23.4957983 C228.494137,24.7058824 227.299832,25.5 225.835846,25.8781513 L225.835846,25.9537815 C228.224456,26.4831933 229.572864,28.0336134 229.881072,30.6806723 L230.343384,35.0294118 C230.497487,36.6932773 231.075377,38.0168067 232,39 L227.107203,39 C226.452261,38.1680672 226.067002,36.9957983 225.912898,35.4831933 L225.566164,32.1554622 C225.41206,30.6806723 224.949749,29.6218487 224.179229,28.9789916 C223.370184,28.2983193 222.175879,27.9957983 220.634841,27.9957983 L213.507538,27.9957983 L213.507538,39 L209,39 L209,12 Z M213,16 L213,24 L219.873065,24 C221.582043,24 222.882353,23.6412556 223.773994,22.9596413 C224.591331,22.2421525 225,21.2376682 225,19.9461883 C225,18.5470852 224.591331,17.5426009 223.773994,16.9327354 C222.956656,16.2869955 221.656347,16 219.873065,16 L213,16 Z M235,12 L240.207077,12 L249.442988,33.1764706 L249.59502,33.1764706 L258.792923,12 L264,12 L264,39 L259.55308,39 L259.55308,20.394958 L259.401048,20.394958 L251.419397,39 L247.580603,39 L239.598952,20.394958 L239.44692,20.394958 L239.44692,39 L235,39 L235,12 Z" id="CRM" stroke="#FFFFFF" stroke-width="2" fill-rule="nonzero"></path>
            </g>
        </g>
    </g>
</svg>